<?xml version="1.0" encoding="UTF-8"?>
<svg width="3600pt" height="3600pt" version="1.1" viewBox="0 0 3600 3600" xmlns="http://www.w3.org/2000/svg">
 <path d="m2779.7 2317.6h22.551v190.64c0 19.883 16.117 36 36 36 19.883 0 36-16.117 36-36v-190.64h22.57c79.363 0 143.95-64.582 143.95-143.95v-43.559c0-79.363-64.582-143.95-143.95-143.95h-22.57v-518.39c0-19.883-16.117-36-36-36-19.883 0-36 16.117-36 36v518.39h-22.551c-79.383 0-143.96 64.582-143.96 143.95v43.559c0 79.363 64.582 143.95 143.96 143.95zm-71.965-187.5c0-39.676 32.293-71.949 71.965-71.949h117.12c39.676 0 71.949 32.273 71.949 71.949v43.559c0 39.676-32.273 71.949-71.949 71.949h-117.12c-39.676 0-71.965-32.273-71.965-71.949z" fill="#934f00"/>
 <path d="m2840.5 2641.5c-106 0-192.23 86.238-192.23 192.23 0 106.01 86.238 192.25 192.23 192.25 106.01 0 192.25-86.238 192.25-192.25 0.003906-106-86.234-192.23-192.25-192.23zm0 312.48c-66.305 0-120.23-53.949-120.23-120.25 0-66.305 53.93-120.23 120.23-120.23s120.25 53.93 120.25 120.23c0.003906 66.305-53.945 120.25-120.25 120.25z" fill="#934f00"/>
 <path d="m3204 1146.7h-1368v-251.78c100.52-17.191 177.34-104.73 177.34-210.07 0-117.63-95.711-213.33-213.34-213.33s-213.34 95.695-213.34 213.33c0 105.34 76.828 192.88 177.34 210.07v251.78h-1368c-19.883 0-36 16.117-36 36v2020c0 19.883 16.117 36 36 36h2808c19.883 0 36-16.117 36-36v-2020c0-19.883-16.117-36-36-36zm-1545.3-461.85c0-77.926 63.406-141.33 141.34-141.33 77.941 0 141.34 63.406 141.34 141.33 0 77.941-63.406 141.34-141.34 141.34-77.941 0-141.34-63.402-141.34-141.34zm-1226.7 533.85h1984.9v1948h-1984.9zm2736 1948h-679.08v-1948h679.08z" fill="#934f00"/>
 <path d="m1422.8 1419.9c-443.43 0-804.18 360.76-804.18 804.18 0 443.43 360.76 804.16 804.18 804.16 443.43 0 804.16-360.74 804.16-804.16s-360.74-804.18-804.16-804.18zm639.16 1160.3h-345.07v-320.11h436.26c-5.6719 115.73-37.703 224.52-91.184 320.11zm-1369.5-320.11h436.26v320.11h-345.07c-53.48-95.594-85.516-204.39-91.184-320.11zm88.309-387.41h347.95v315.41h-436.26c5.5703-113.78 36.422-220.98 88.309-315.41zm419.95 0h444.18v315.41h-444.18zm0 387.41h444.18v320.11h-444.18zm516.18-72v-315.41h347.95c51.887 94.422 82.734 201.62 88.309 315.41zm302.16-387.41h-302.16v-246.63c121.69 53.629 225.83 139.47 302.16 246.63zm-374.16-274.12v274.12h-444.18v-274.12c70.105-22.375 144.67-34.66 222.1-34.66 77.422 0.003906 151.98 12.289 222.08 34.66zm-516.18 27.492v246.63h-302.16c76.324-107.16 180.46-193 302.16-246.63zm-298.62 1098.1h298.62v241.9c-119.87-52.82-222.61-136.97-298.62-241.9zm370.62 269.39v-269.39l444.18-0.003907v269.39c-70.102 22.371-144.66 34.66-222.08 34.66-77.43 0-152-12.289-222.1-34.66zm516.18-27.484v-241.9h298.62c-76.012 104.93-178.76 189.07-298.62 241.9z" fill="#934f00"/>
 <path d="m1143.9 722.16h0.035156l207.81-0.17578c19.883-0.019531 35.98-16.156 35.965-36.035-0.019531-19.863-16.137-35.965-36-35.965h-0.035156l-207.81 0.17578c-19.883 0.019532-35.98 16.156-35.965 36.035 0.015625 19.863 16.137 35.965 36 35.965z" fill="#934f00"/>
 <path d="m1433.5 569.66c7.0312 7.0117 16.227 10.531 25.438 10.531 9.2305 0 18.438-3.5156 25.469-10.562 14.043-14.062 14.027-36.863-0.035156-50.906l-147.07-146.85c-14.098-14.043-36.879-14.082-50.906 0.035156-14.043 14.062-14.027 36.863 0.035156 50.906z" fill="#934f00"/>
 <path d="m1437.6 795.69-141.66 152.07c-13.551 14.555-12.742 37.336 1.8125 50.887 6.9453 6.4492 15.75 9.6484 24.539 9.6484 9.6328 0 19.25-3.8516 26.352-11.461l141.66-152.07c13.551-14.555 12.742-37.336-1.8125-50.887-14.52-13.496-37.285-12.742-50.891 1.8125z" fill="#934f00"/>
 <path d="m2248.3 649.99c-19.863 0-35.98 16.102-36 35.965-0.019531 19.883 16.082 36.02 35.965 36.035l207.81 0.17578h0.035156c19.863 0 35.98-16.102 36-35.965 0.019531-19.883-16.082-36.02-35.965-36.035l-207.81-0.17578h-0.035156z" fill="#934f00"/>
 <path d="m2141 580.18c9.2109 0 18.406-3.5156 25.438-10.531l147.07-146.85c14.062-14.043 14.082-36.844 0.035156-50.906-14.043-14.098-36.824-14.062-50.906-0.035157l-147.07 146.85c-14.062 14.043-14.082 36.844-0.035156 50.906 7.0312 7.0508 16.242 10.566 25.469 10.566z" fill="#934f00"/>
 <path d="m2251.3 996.84c7.1016 7.6133 16.719 11.461 26.352 11.461 8.7891 0 17.594-3.1992 24.539-9.6484 14.555-13.551 15.363-36.332 1.8125-50.887l-141.66-152.07c-13.57-14.555-36.332-15.328-50.887-1.8125-14.555 13.551-15.363 36.332-1.8125 50.887z" fill="#934f00"/>
</svg>
