<?xml version="1.0" encoding="UTF-8"?>
<svg width="3600pt" height="3600pt" version="1.1" viewBox="0 0 3600 3600" xmlns="http://www.w3.org/2000/svg">
 <path d="m3417.3 321.3c0-78.059-63.375-141.45-141.44-141.45h-2954.5c-78.059 0-141.45 63.383-141.45 141.45v2954.5c0 78.059 63.383 141.44 141.45 141.44h2954.5c78.059 0 141.44-63.375 141.44-141.44zm-94.289 0v2954.5c0 26.02-21.125 47.145-47.145 47.145h-2954.5c-26.02 0-47.145-21.125-47.145-47.145v-2954.5c0-26.02 21.125-47.145 47.145-47.145h2954.5c26.02 0 47.145 21.125 47.145 47.145zm-2608.8 660.05h-47.152c-78.059 0-141.44 63.375-141.44 141.45v408.61c0 78.059 63.375 141.44 141.44 141.44h47.152v1445.8c0 26.02 21.125 47.145 47.145 47.145 26.02 0 47.145-21.125 47.145-47.145v-1445.8h47.145c78.059 0 141.45-63.375 141.45-141.44v-408.61c0-78.07-63.383-141.45-141.45-141.45h-47.145v-502.89c0-26.02-21.125-47.145-47.145-47.145-26.02 0-47.145 21.125-47.145 47.145zm691.48 628.63h-47.152c-78.059 0-141.44 63.375-141.44 141.44v408.61c0 78.07 63.375 141.45 141.44 141.45h47.152v817.21c0 26.02 21.125 47.145 47.145 47.145 26.02 0 47.145-21.125 47.145-47.145v-817.21h47.145c78.059 0 141.45-63.375 141.45-141.45v-408.61c0-78.059-63.383-141.44-141.45-141.44h-47.145v-1131.5c0-26.02-21.125-47.145-47.145-47.145-26.02 0-47.145 21.125-47.145 47.145zm691.48-314.31h-47.145c-78.07 0-141.45 63.375-141.45 141.44v408.61c0 78.07 63.375 141.45 141.45 141.45h47.145v1131.5c0 26.02 21.125 47.145 47.145 47.145 26.02 0 47.145-21.125 47.145-47.145v-1131.5h47.145c78.07 0 141.45-63.375 141.45-141.45v-408.61c0-78.059-63.375-141.44-141.45-141.44h-47.145v-817.21c0-26.02-21.125-47.145-47.145-47.145-26.02 0-47.145 21.125-47.145 47.145zm691.48 628.62h-47.145c-78.07 0-141.45 63.383-141.45 141.45v408.61c0 78.059 63.375 141.45 141.45 141.45h47.145v502.89c0 26.02 21.125 47.145 47.145 47.145 26.02 0 47.145-21.125 47.145-47.145v-502.89h47.145c78.07 0 141.45-63.383 141.45-141.45v-408.61c0-78.059-63.375-141.45-141.45-141.45h-47.145v-1445.8c0-26.02-21.125-47.145-47.145-47.145-26.02 0-47.145 21.125-47.145 47.145zm-47.145 94.301h188.58c26.02 0 47.145 21.125 47.145 47.145v408.61c0 26.02-21.125 47.145-47.145 47.145h-188.58c-26.02 0-47.152-21.125-47.152-47.145v-408.61c0-26.02 21.133-47.145 47.152-47.145zm47.145 298.59h94.289c26.02 0 47.145-21.125 47.145-47.145s-21.125-47.145-47.145-47.145h-94.289c-26.02 0-47.145 21.125-47.145 47.145s21.125 47.145 47.145 47.145zm-1194.4-565.76v408.61c0 26.02-21.125 47.145-47.145 47.145h-188.59c-26.02 0-47.145-21.125-47.145-47.145v-408.61c0-26.02 21.125-47.145 47.145-47.145h188.59c26.02 0 47.145 21.125 47.145 47.145zm-188.58 251.45h94.289c26.02 0 47.145-21.125 47.145-47.145s-21.125-47.145-47.145-47.145h-94.289c-26.02 0-47.152 21.125-47.152 47.145s21.133 47.145 47.152 47.145zm880.07-565.76v408.61c0 26.027-21.125 47.152-47.145 47.152h-188.58c-26.027 0-47.152-21.125-47.152-47.152v-408.61c0-26.02 21.125-47.145 47.152-47.145h188.58c26.02 0 47.145 21.125 47.145 47.145zm-188.58 251.46h94.289c26.02 0 47.145-21.125 47.145-47.152 0-26.02-21.125-47.145-47.145-47.145h-94.289c-26.02 0-47.145 21.125-47.145 47.145 0 26.027 21.125 47.152 47.145 47.152zm-1430.1-612.91h188.59c26.02 0 47.145 21.133 47.145 47.152v408.61c0 26.02-21.125 47.145-47.145 47.145h-188.59c-26.02 0-47.145-21.125-47.145-47.145v-408.61c0-26.02 21.125-47.152 47.145-47.152zm47.152 298.6h94.289c26.02 0 47.145-21.125 47.145-47.145 0-26.02-21.125-47.145-47.145-47.145h-94.289c-26.027 0-47.152 21.125-47.152 47.145 0 26.02 21.125 47.145 47.152 47.145z" fill="#934f00" fill-rule="evenodd"/>
</svg>
