<?xml version="1.0" encoding="UTF-8"?>
<svg width="3600pt" height="3600pt" version="1.1" viewBox="0 0 3600 3600" xmlns="http://www.w3.org/2000/svg">
 <path d="m3550.5 23.98h-916.31c-20.953 0-37.91 16.977-37.91 37.91v378.54h-1592.6v-378.54c0-20.938-16.957-37.91-37.91-37.91h-916.31c-20.953 0-37.91 16.977-37.91 37.91v2221.2c0 20.938 16.957 37.91 37.91 37.91h110.62v184.15c0 20.938 16.957 37.91 37.91 37.91h162.04l187.58 791.43h-125.56c-20.953 0-37.91 16.977-37.91 37.91v165.7c0 20.938 16.957 37.91 37.91 37.91h2764.6c20.953 0 37.91-16.977 37.91-37.91v-165.7c0-20.938-16.957-37.91-37.91-37.91l-134.55 0.003906 187.58-791.43h162.07c20.953 0 37.91-16.977 37.91-37.91v-184.15h110.85c20.953 0 37.91-16.977 37.91-37.91v-2221.2c0-20.938-16.957-37.91-37.91-37.91zm-2546.9 492.27h1592.5v1372.2h-174.01v-234.24c0-47.445-38.613-86.039-86.039-86.039h-433.16c-47.426 0-86.004 38.598-86.004 86.039v234.24h-563.63v-259.27c-3.7578-22.848 50.527-68.281 70.102-93.652 29.332 46.855 85.133 68.434 131.75 32.062 0 0.003906 104.48-84.684 104.48-84.684 0.10938-0.046875 102.79-83.352 102.89-83.406 0.16016-0.082031 0.31641-0.18359 0.41797-0.33984l6.2617-5.0781h813.32c20.953 0 37.91-16.977 37.91-37.91v-725.99c0-20.938-16.957-37.91-37.91-37.91h-1365.2c-20.953 0-37.91 16.977-37.91 37.91v726c0 20.938 16.957 37.91 37.91 37.91h122.9c-5.2344 31.883 14.965 59.289 34.883 81.68-32.801 40.203-102.62 95.207-97.656 153.41v259.27h-173.86zm1342.7 1137.9v234.24h-453.56v-234.24c0-5.6289 4.5547-10.219 10.18-10.219h433.16c5.6289 0 10.219 4.5898 10.219 10.219zm-605.06-423.84-81.633-101.05c-28.582-34.82-80.227-40.336-115.32-12.309l-66.344 53.461c-1.1836 0.98047-2.332 2.0352-3.4062 3.1484-44.035 35.844-134.86 109.16-178.48 144.65h-140.8l-0.007812-650.17h1289.3v650.17h-693.47c1.2773-2.5625 2.1328-5.3281 3.1328-8.0234 10.766-26.457 5.0703-58.117-13.016-79.871zm-289.33 59.195 44.234-35.859 89.504 110.52-44.242 35.859zm30.574 158.26-74.93 60.73c-2.8125 2.2773-6.8867 1.9062-9.0352-0.66797l-81.633-101.07c-6.0391-7.7734 12.547-16.695 16.277-21.062 0.28125 0 59.574-48.297 59.844-48.434zm72.469-242.01 36.828-29.684c2.6641-2.1641 6.8125-1.6836 9.0352 1.0547l81.637 101.05c2.0391 2.7344 2.0273 5.6328-0.96094 8.293l-36.957 29.898zm1427.3 758.46 161.78 280.85h-2688.6l161.78-280.85zm-2895 280.93v-2145.4h840.49c-0.078125 247.2-0.21484 1514.8-0.14844 1788.6h-332.32c-13.551 0-26.102 7.2383-32.84 18.992l-194.51 337.68c-67.211-0.046875-214.77 0.089844-280.67 0.074219zm3061.4 1165.1v89.871l-2688.8 0.003907v-89.871zm-174.56-75.82h-2348.7l-187.59-791.43h2723.9zm389.66-867.25h-3128v-146.24h3128zm148.76-222.06c-65.582 0.015625-214.17-0.12109-281.01-0.074219l-194.51-337.68c-6.7383-11.754-19.289-18.992-32.84-18.992h-332.13v-1788.6h840.49zm-2774.8-178.43h176.12c49.621 0.20703 49.527 75.617 0 75.824h-176.12c-49.621-0.21094-49.527-75.625 0-75.824zm389.62 0h176.12c49.621 0.20703 49.527 75.617 0 75.824h-176.12c-49.617-0.21094-49.527-75.625 0-75.824zm389.59 0h176.12c49.621 0.20703 49.527 75.617 0 75.824h-176.12c-49.621-0.21094-49.527-75.625 0-75.824zm389.62 0h176.12c49.621 0.20703 49.527 75.617 0 75.824h-176.12c-49.621-0.21094-49.527-75.625 0-75.824zm389.59 0h176.15c49.621 0.20703 49.527 75.617 0 75.824h-176.15c-49.621-0.21094-49.527-75.625 0-75.824zm389.62 0h176.12c49.621 0.20703 49.527 75.617 0 75.824h-176.12c-49.621-0.21094-49.527-75.625 0-75.824zm-2178.2-1128.4c169.08 0 306.62-137.54 306.62-306.6-15.414-406.22-597.9-406.11-613.24 0 0 169.06 137.54 306.6 306.62 306.6zm0-537.4c305 9.707 304.95 451.91-0.003907 461.58-305.02-9.7109-304.93-451.92 0.003907-461.58zm0 344.75c150.26-3.9531 150.23-223.98 0-227.91-150.26 3.9531-150.23 223.98 0 227.91zm0-152.09c49.855 0.25781 49.852 76.016 0 76.266-49.855-0.26172-49.852-76.016 0-76.266zm306.62 838.76c-15.414-406.21-597.9-406.11-613.24 0.003906 0 169.06 137.54 306.6 306.62 306.6 169.08 0 306.62-137.54 306.62-306.61zm-306.62-230.8c305 9.707 304.95 451.91-0.003907 461.58-305.02-9.7109-304.93-451.92 0.003907-461.58zm0 116.82c-150.25 3.9492-150.24 224 0 227.93 150.27-3.9531 150.22-224 0-227.93zm0 152.11c-49.859-0.25781-49.84-76.027 0-76.285 49.848 0.26562 49.859 76.031 0 76.285zm2584.8-532.16c169.08 0 306.62-137.54 306.62-306.6-15.41-406.2-597.85-406.12-613.2 0 0 169.06 137.54 306.6 306.58 306.6zm0-537.4c305 9.707 304.95 451.91-0.003906 461.58-304.97-9.6953-304.88-451.93 0.003906-461.58zm0 344.75c150.26-3.9531 150.23-223.98 0-227.91-150.26 3.9531-150.23 223.98 0 227.91zm0-152.09c49.855 0.25781 49.852 76.016 0 76.266-49.855-0.26172-49.848-76.016 0-76.266zm0 532.14c-406.16 15.422-406.06 597.87 0.003907 613.22 169.08 0 306.62-137.54 306.62-306.6s-137.54-306.62-306.62-306.62zm-230.76 306.62c9.6914-305.03 451.9-304.93 461.56 0.003906-9.7148 304.97-451.91 304.93-461.56-0.003906zm116.81 0.003906c3.9531 150.26 223.98 150.23 227.91-0.003906-3.9453-150.29-223.98-150.25-227.91 0.003906zm75.82-0.003906c0.25781-49.879 76.012-49.875 76.266 0.003906-0.25781 49.852-76.016 49.852-76.266-0.003906z" fill="#934f00"/>
</svg>
