<?xml version="1.0" encoding="UTF-8"?>
<svg width="3600pt" height="3600pt" version="1.1" viewBox="0 0 3600 3600" xmlns="http://www.w3.org/2000/svg">
 <path d="m1186 431.31h-864.71c-78.059 0-141.45 63.375-141.45 141.44v2514.5c0 78.059 63.383 141.45 141.45 141.45h39.289l51.859 69.141c26.711 35.621 68.633 56.582 113.15 56.582h94.289c44.52 0 86.441-20.961 113.15-56.582l51.859-69.141h2027.3l51.867 69.141c26.711 35.621 68.633 56.582 113.14 56.582h94.301c44.52 0 86.441-20.961 113.15-56.582l51.859-69.141h39.289c78.059 0 141.44-63.383 141.44-141.45v-2514.5c0-78.059-63.375-141.44-141.44-141.44h-864.71c-57.238-40.332-289.68-188.59-612.55-188.59-322.87 0-555.32 148.26-612.54 188.59zm1932.7 2797.4-9.4258 12.57c-8.9102 11.871-22.879 18.855-37.719 18.855h-94.301c-14.84 0-28.809-6.9844-37.711-18.855l-9.4375-12.57zm-2451.6 0-9.4258 12.57c-8.9023 11.871-22.879 18.855-37.719 18.855h-94.289c-14.84 0-28.816-6.9844-37.719-18.855l-9.4258-12.57h188.58zm2655.9-2011.6h-3048.8v1870.2c0 26.02 21.125 47.145 47.145 47.145h2954.5c26.02 0 47.145-21.125 47.145-47.145zm-62.867 157.16c0-25.012-9.9297-48.992-27.617-66.672-17.68-17.688-41.664-27.617-66.672-27.617h-2734.5c-25.012 0-48.992 9.9297-66.684 27.617-17.68 17.68-27.617 41.664-27.617 66.672v1603c0 25.012 9.9375 48.992 27.617 66.684 17.688 17.68 41.672 27.617 66.684 27.617h2734.5c25.012 0 48.992-9.9375 66.672-27.617 17.688-17.688 27.617-41.672 27.617-66.684zm-94.289 1603v-335.09l-110.01-110.01-247.63 247.63 197.46 197.46zm-555.11 0h261.58l-130.79-130.78-130.79 130.78zm-431.16-197.46 197.46 197.46h100.34l197.46-197.46-247.63-247.63zm-197.46 197.46h261.58l-130.79-130.78-130.79 130.78zm-431.15-197.46 197.46 197.46h100.34l197.46-197.46-247.64-247.63zm-197.46 197.46h261.57l-130.78-130.78zm-431.16-197.46 197.46 197.46h100.34l197.46-197.46-247.63-247.63zm-197.46 197.46h261.58l-130.79-130.78-130.79 130.78zm-133.35 0h-160.2l0.027343-335.1 110-110 247.64 247.63-197.46 197.46zm16.508-511.77 247.63 247.63 247.64-247.63-247.64-247.64zm1885.9 0 247.64 247.63 247.63-247.63-247.63-247.64zm-628.62 0 247.63 247.63 247.64-247.63-247.64-247.64zm-628.63 0 247.64 247.63 247.63-247.63-247.63-247.64zm1885.9 0 43.328 43.328v-86.668zm-2691.2 43.312 43.32-43.312-43.32-43.32zm490.98-357.62 247.64 247.63 247.63-247.63-247.63-247.64zm1257.2 0 247.64 247.63 247.63-247.63-247.63-247.64zm-628.62 0 247.63 247.63 247.64-247.63-247.64-247.64zm-1119.6-137.64 0.007812 275.27 110 110 247.64-247.63-247.64-247.64zm2376.9 137.64 247.63 247.63 110.01-110v-275.26l-110.01-110.01zm-1571.6-314.31 247.64 247.64 247.63-247.64-247.63-247.63zm628.63 0 247.63 247.64 247.64-247.64-247.64-247.63zm628.62 0 247.64 247.64 247.63-247.64-247.63-247.63zm-1885.9 0 247.63 247.64 247.64-247.64-247.64-247.63zm2514.5 0 43.328 43.328v-86.66l-43.328 43.328zm-2691.2 43.328 43.328-43.328-43.328-43.328v86.66zm1119.6-357.64 247.63 247.64 247.64-247.64-148.28-148.27h-198.71l-148.27 148.27zm-628.63 0 247.64 247.64 247.63-247.64-148.27-148.27h-198.71l-148.28 148.27zm1257.2 0 247.64 247.64 247.63-247.64-148.27-148.27h-198.71l-148.28 148.27zm776.9-148.27h209.37v285.9l-110.01 110.01-247.63-247.64zm-2525.1 0v285.9l110 110.01 247.64-247.64-148.28-148.27h-209.36zm1681.6 81.602 81.602-81.602h-163.2l81.602 81.602zm-628.62 0 81.602-81.602h-163.21l81.609 81.602zm-628.63 0 81.602-81.602h-163.2l81.602 81.602zm1885.9 0 81.602-81.602h-163.21l81.609 81.602zm581.47-333.05h-3048.8v-550.05c0-26.02 21.125-47.145 47.145-47.145h2954.5c26.02 0 47.145 21.125 47.145 47.145zm-2640.2-440.04c0-26.039-21.109-47.145-47.145-47.145h-188.59c-26.039 0-47.145 21.109-47.145 47.145v282.88c0 26.039 21.109 47.145 47.145 47.145h188.59c26.039 0 47.145-21.109 47.145-47.145zm2514.5 0c0-26.039-21.109-47.145-47.145-47.145h-188.59c-26.039 0-47.145 21.109-47.145 47.145v282.88c0 26.039 21.109 47.145 47.145 47.145h188.59c26.039 0 47.145-21.109 47.145-47.145zm-785.79 0c-78.059 0-141.44 63.375-141.44 141.44 0 78.07 63.375 141.45 141.44 141.45 78.07 0 141.45-63.375 141.45-141.45 0-78.059-63.375-141.44-141.45-141.44zm-1225.8 0c-78.059 0-141.44 63.375-141.44 141.44 0 78.07 63.375 141.45 141.44 141.45 78.059 0 141.45-63.375 141.45-141.45 0-78.059-63.383-141.44-141.45-141.44zm408.61 0c-78.059 0-141.44 63.375-141.44 141.44 0 78.07 63.375 141.45 141.44 141.45 78.07 0 141.45-63.375 141.45-141.45 0-78.059-63.375-141.44-141.45-141.44zm408.61 0c-78.059 0-141.44 63.375-141.44 141.44 0 78.07 63.375 141.45 141.44 141.45 78.07 0 141.45-63.375 141.45-141.45 0-78.059-63.375-141.44-141.45-141.44zm1100.1 47.145v188.59h-94.301v-188.59zm-2514.5 0v188.59h-94.289v-188.59zm597.2 47.145c26.02 0 47.145 21.125 47.145 47.145s-21.125 47.145-47.145 47.145c-26.02 0-47.145-21.125-47.145-47.145s21.125-47.145 47.145-47.145zm408.61 0c26.02 0 47.145 21.125 47.145 47.145s-21.125 47.145-47.145 47.145-47.145-21.125-47.145-47.145 21.125-47.145 47.145-47.145zm408.61 0c26.02 0 47.152 21.125 47.152 47.145s-21.133 47.145-47.152 47.145-47.145-21.125-47.145-47.145 21.125-47.145 47.145-47.145zm408.61 0c26.027 0 47.152 21.125 47.152 47.145s-21.125 47.145-47.152 47.145c-26.02 0-47.145-21.125-47.145-47.145s21.125-47.145 47.145-47.145zm-190.81-345.74c-100.1-46.258-246.39-94.301-422.1-94.301-175.7 0-321.99 48.043-422.09 94.301z" fill="#934f00" fill-rule="evenodd"/>
</svg>
