<?xml version="1.0" encoding="UTF-8"?>
<svg width="3600pt" height="3600pt" version="1.1" viewBox="0 0 3600 3600" xmlns="http://www.w3.org/2000/svg">
 <path d="m736.76 1347.1c-11.188-3.0547-22.965-4.6797-35.121-4.6797-73.762 0-133.64 59.879-133.64 133.63v93.754c0 73.762 59.879 133.64 133.64 133.64 12.156 0 23.93-1.6211 35.121-4.6797v1440.5c0 76.859 62.398 139.27 139.26 139.27h712.32c4.8516 76.766 70.773 138.75 152.62 138.75h115.18c81.859 0 147.77-61.984 152.63-138.75h712.32c76.867 0 139.27-62.41 139.27-139.27v-1440.5c11.18 3.0547 22.965 4.6797 35.121 4.6797 73.754 0 133.64-59.879 133.64-133.64v-93.754c0-73.754-59.887-133.63-133.64-133.63-12.156 0-23.941 1.6211-35.121 4.6797v-1028c0-76.859-62.398-139.27-139.27-139.27h-1845.1c-76.859 0-139.26 62.41-139.26 139.27zm1172.9 1931.4h-222.14c4.7305 23.352 27.395 40.23 53.473 40.23h115.18c26.09 0 48.742-16.879 53.48-40.23zm852.21-1500.1v1360.8c0 22.488-18.258 40.75-40.75 40.75h-1845.1c-22.48 0-40.738-18.258-40.738-40.75v-1360.8zm-126.49 265.75c0-76.859-62.398-139.26-139.26-139.26h-1395.1c-76.859 0-139.26 62.398-139.26 139.26v870.04c0 76.859 62.398 139.26 139.26 139.26h1395.1c76.859 0 139.26-62.398 139.26-139.26zm-98.52 279.23v-252.21l-1378.7 883.77h395.07c2.1836-2.082 4.6094-3.9805 7.2422-5.6719l976.37-625.88zm0 369.25v-252.22l-802.65 514.52h395.07c2.1836-2.082 4.6094-3.9805 7.2422-5.6719zm0 117.02v104.54c0 22.48-18.258 40.738-40.738 40.738h-185.89l226.63-145.28zm-470.33-806.25-1006.2 645.01v252.21l1399.7-897.23h-393.47zm-576.03 0-430.19 275.76v252.22l823.66-527.98h-393.47zm-182.55 0-247.63 158.74v-118c0-22.488 18.25-40.738 40.738-40.738h206.89zm1453.9-323.54v-1360.8c0-22.488-18.258-40.75-40.75-40.75h-1845.1c-22.48 0-40.738 18.258-40.738 40.75v1360.8zm-2025.1-203.88c0-19.383-15.738-35.109-35.121-35.109-19.383 0-35.121 15.73-35.121 35.109v93.754c0 19.383 15.738 35.121 35.121 35.121 19.383 0 35.121-15.738 35.121-35.121zm2123.6 93.754v-93.754c0-19.383 15.738-35.109 35.121-35.109 19.383 0 35.109 15.73 35.109 35.109v93.754c0 19.383-15.73 35.121-35.109 35.121-19.383 0-35.121-15.738-35.121-35.121zm-225.01-891.52c0-76.258-62.27-138.41-139.26-138.41h-1395.1c-76.988 0-139.26 62.148-139.26 138.41v601.74c0 76.258 62.27 138.41 139.26 138.41h1395.1c76.988 0 139.26-62.148 139.26-138.41zm-98.52 0v601.74c0 22.145-18.387 39.887-40.738 39.887h-1395.1c-22.359 0-40.738-17.742-40.738-39.887v-601.74c0-22.145 18.379-39.887 40.738-39.887h1395.1c22.352 0 40.738 17.742 40.738 39.887zm-1218.3 515.14c118.26 0 214.27-96.016 214.27-214.27 0-118.26-96.008-214.27-214.27-214.27s-214.27 96.008-214.27 214.27c0 118.26 96.016 214.27 214.27 214.27zm480.02 0c118.27 0 214.27-96.016 214.27-214.27 0-118.26-96.008-214.27-214.27-214.27-118.26 0-214.27 96.008-214.27 214.27 0 118.26 96.008 214.27 214.27 214.27zm480.03 0c118.26 0 214.27-96.016 214.27-214.27 0-118.26-96.008-214.27-214.27-214.27-118.26 0-214.27 96.008-214.27 214.27 0 118.26 96.016 214.27 214.27 214.27zm-430.77-109.54c39.281-18.5 66.492-58.465 66.492-104.74 0-63.875-51.867-115.74-115.75-115.74-63.875 0-115.74 51.867-115.74 115.74 0 46.273 27.211 86.234 66.484 104.74v-104.74c0-27.188 22.074-49.262 49.262-49.262 27.195 0 49.262 22.074 49.262 49.262v104.74zm-480.02 0c39.281-18.5 66.484-58.465 66.484-104.74 0-63.875-51.859-115.74-115.74-115.74-63.887 0-115.74 51.867-115.74 115.74 0 46.273 27.203 86.234 66.484 104.74v-104.74c0-27.188 22.074-49.262 49.262-49.262s49.262 22.074 49.262 49.262v104.74zm960.04 0c39.273-18.5 66.484-58.465 66.484-104.74 0-63.875-51.867-115.74-115.74-115.74-63.887 0-115.75 51.867-115.75 115.74 0 46.273 27.211 86.234 66.492 104.74v-104.74c0-27.188 22.074-49.262 49.262-49.262s49.262 22.074 49.262 49.262v104.74z" fill="#934f00" fill-rule="evenodd"/>
</svg>
