<?xml version="1.0" encoding="UTF-8"?>
<svg width="3600pt" height="3600pt" version="1.1" viewBox="0 0 3600 3600" xmlns="http://www.w3.org/2000/svg">
 <path d="m278.96 2514.1-4.7305-12.922c-61.078-170.47-94.379-354.12-94.379-545.49 0-330.54 99.297-638.07 269.64-894.38 2.6953-4.0586 5.4141-8.1055 8.1406-12.137 291.16-429.64 783.3-712.19 1340.9-712.19 557.62 0 1049.8 282.54 1340.9 712.19 1.3984 2.0547 6.7695 10.066 8.1484 12.137 170.35 256.31 269.64 563.84 269.64 894.38 0 191.37-33.289 375.02-94.367 545.49-1.2422 3.4688-3.1328 8.6406-4.7305 12.977v283.63c0 89.293-50.453 170.92-130.31 210.85l-121.9 60.949c-6.8711 62.91-60.242 111.93-124.96 111.93-33.961 0-64.793-13.492-87.426-35.422-51.582 69.168-134.04 113.99-226.89 113.99-156.13 0-282.88-126.75-282.88-282.88v-942.93c0-156.12 126.75-282.88 282.88-282.88 92.848 0 175.3 44.832 226.89 114 22.637-21.93 53.465-35.422 87.426-35.422 64.723 0 118.09 49.02 124.96 111.92l121.9 60.949c61.32 30.664 105.3 85.918 122.42 150.36 8.375-64.637 12.699-130.57 12.699-197.5 0-287.84-79.941-557.16-218.83-786.91-46.801 48.969-113.8 84.258-187.86 84.258-59.371 0-113.91-17.766-157.04-47.086-1.7617-1.1914-3.4375-2.5039-5.0156-3.9297 0 0-30.414-28.004-47.359-45.789l-9.832-11.266 4.0938 5.0078 0.085937 0.09375 5.6562 6.1641c0.20703 0.24219-0.39844-0.37891-1.7695-1.875l-3.8867-4.2891-1.6562-1.8398c-221.6-247.06-543.21-402.61-900.82-402.64-358.22 0.035156-680.32 156.11-901.93 403.86v0.007813c-14.027 16.16-53.566 52.566-53.566 52.566-1.5781 1.4258-3.2539 2.7383-5.0156 3.9297-43.133 29.316-97.676 47.086-157.04 47.086-74.168 0-141.25-35.395-188.05-84.457-138.98 229.84-218.95 499.21-218.95 787.11 0 66.934 4.3164 132.86 12.699 197.5 17.109-64.438 61.086-119.69 122.42-150.36l121.9-60.949c6.8711-62.902 60.242-111.92 124.96-111.92 33.961 0 64.793 13.492 87.426 35.422 51.574-69.168 134.04-114 226.89-114 156.12 0 282.88 126.76 282.88 282.88v942.93c0 156.13-126.76 282.88-282.88 282.88-92.848 0-175.31-44.824-226.89-113.99-22.637 21.93-53.465 35.422-87.426 35.422-64.723 0-118.09-49.02-124.96-111.93l-121.9-60.949c-79.863-39.93-130.31-121.55-130.31-210.85v-283.68zm502.89 463.1c0 104.09 84.5 188.59 188.59 188.59 104.08 0 188.58-84.5 188.58-188.59v-942.93c0-104.08-84.5-188.59-188.58-188.59-104.09 0-188.59 84.508-188.59 188.59zm2033.4-942.93c0-104.08-84.508-188.59-188.59-188.59-104.09 0-188.59 84.508-188.59 188.59v942.93c0 104.09 84.5 188.59 188.59 188.59 104.08 0 188.59-84.5 188.59-188.59zm-2127.7-78.578v1100.1c0 17.352-14.09 31.434-31.434 31.434s-31.434-14.082-31.434-31.434v-1100.1c0-17.344 14.09-31.434 31.434-31.434s31.434 14.09 31.434 31.434zm2222 1100.1v-1100.1c0-17.344 14.082-31.434 31.434-31.434 17.344 0 31.426 14.09 31.426 31.434v1100.1c0 17.352-14.082 31.434-31.426 31.434-17.352 0-31.434-14.082-31.434-31.434zm-2536.3-842.09v584.1c0 53.578 30.27 102.55 78.191 126.51l78.969 39.488v-916.09l-78.977 39.488c-47.914 23.957-78.18 72.934-78.18 126.51zm2693.5-166v916.09l78.969-39.488c47.922-23.957 78.191-72.934 78.191-126.51v-584.11c0-53.566-30.27-102.54-78.191-126.5l-78.969-39.488zm-16.023-961.24c-275.46-395.84-733.74-655.16-1252.1-655.16-518.28 0-976.49 259.22-1252 654.94 29.594 40.324 78.664 72.508 134.57 72.508 38.246 0 73.57-10.773 101.89-29.344 8.4414-7.4258 41.949-41.109 43.469-42.805 238.87-267.05 586.07-435.25 972.2-435.29h0.007812c386.12 0.035156 733.33 168.23 972.2 435.29 1.5195 1.6914 35.129 35.465 43.676 42.957 28.168 18.441 63.469 29.188 101.68 29.188 55.805 0 104.8-32.062 134.42-72.285z" fill="#934f00" fill-rule="evenodd"/>
</svg>
