<?xml version="1.0" encoding="UTF-8"?>
<svg width="3600pt" height="3600pt" version="1.1" viewBox="0 0 3600 3600" xmlns="http://www.w3.org/2000/svg">
 <path d="m1708.6 472.22c-44.133 12.934-76.379 53.742-76.379 102.03v789.95c0 9.1328 1.1484 18 3.3242 26.453-55.406 22.672-94.473 77.137-94.473 140.65v1519.1c0 83.844 68.062 151.92 151.91 151.92h63.918c19.77 128.11 129.74 213.2 256.84 214.9 90.094 1.207 189.72-39.809 268.25-141.47 50.098-64.852 86.297-95.578 120.41-99.055 19.711-2.0117 36.379 7.8984 53.145 21.004 25.043 19.578 48.977 46.98 74.711 74.441 70.902 75.645 153.88 148.28 279.27 127.16 24.805-4.1797 41.543-27.703 37.363-52.508-4.168-24.805-27.703-41.551-52.508-37.371-65.043 10.957-112.1-18.191-152.57-54.605-32.918-29.621-61.855-64.238-90.594-93.176-46.844-47.164-95.293-78.785-150.37-76.203-51.395 2.4102-114.54 35.629-190.98 134.59-43.512 56.324-94.988 88.75-146.33 100.72-96.113 22.41-190.86-28.586-213.52-118.44h55.656c83.844 0 151.92-68.07 151.92-151.92v-194.26c0.085938-1.5625 0.085938-3.1953 0-4.8789v-177.42c0.085938-1.5625 0.085938-3.1953 0-4.8789v-694.53l0.015625-0.28516c0.007813-0.62891 0.015625-1.2695 0.027344-1.8984l-0.042969-1.7617v-178.35l0.015625-0.28516c0.007813-0.62891 0.015625-1.2695 0.027344-1.8984l-0.042969-1.7617v-256.91c0-63.512-39.074-117.98-94.473-140.65 2.168-8.4531 3.3242-17.316 3.3242-26.453v-789.95c0-48.285-32.254-89.094-76.379-102.03l36.164-45.738c10.836-13.691 12.891-32.375 5.2852-48.094 0 0-55.984-115.84-80.203-165.93-9.6328-19.934-29.828-32.605-51.973-32.605s-42.336 12.672-51.98 32.605h0.007813c-24.215 50.09-80.211 165.93-80.211 165.93-7.5977 15.723-5.5508 34.402 5.2852 48.094l36.172 45.738zm257.83 2404.8c-5.5156-1.668-12.734-3.5469-20.988-5.0508-29.785-5.4219-75.625-9.3945-146.11-9.3945-70.496 0-116.33 3.9727-146.11 9.3945-8.2617 1.5039-15.469 3.3828-20.988 5.0508v173.39c0 33.539 27.219 60.77 60.758 60.77h212.68c33.539 0 60.77-27.23 60.77-60.77zm-379.78 21.488m425.35 0m-45.574-203.78c-5.5156-1.6758-12.734-3.5586-20.988-5.0586-29.785-5.4219-75.625-9.3828-146.11-9.3828-70.496 0-116.33 3.9609-146.11 9.3828-8.2617 1.5039-15.469 3.3828-20.988 5.0586v88.809c34.715-6.7422 87.316-12.113 167.1-12.113 79.777 0 132.38 5.3711 167.1 12.113zm-379.78 21.48m425.35 0m-45.574-726.66c-5.4297-2.3906-13.777-5.6367-23.637-8.0469-29.242-7.1406-74.254-12.277-143.46-12.277-69.211 0-114.22 5.1367-143.46 12.277-9.8594 2.4102-18.215 5.6562-23.637 8.0469v611.7c34.715-6.7422 87.316-12.105 167.1-12.105 79.777 0 132.38 5.3594 167.1 12.105zm-379.78 27.867m425.35 0m-45.574-210.16c-5.4297-2.3984-13.777-5.6445-23.637-8.0547-29.242-7.1328-74.254-12.277-143.46-12.277-69.211 0-114.22 5.1445-143.46 12.277-9.8594 2.4102-18.215 5.6562-23.637 8.0547v86.34c34.645-8.6172 87.211-15.523 167.1-15.523s132.46 6.9062 167.1 15.523zm-379.78 27.859m425.35 0m-45.574-123.82v-180.01c0-33.539-27.23-60.758-60.77-60.758h-212.68c-33.539 0-60.758 27.219-60.758 60.758v180.01c34.645-8.6055 87.211-15.523 167.1-15.523s132.46 6.9141 167.1 15.523zm-91.148-1015.5v668.42c0 8.3828-6.8047 15.195-15.195 15.195h-121.53c-8.3828 0-15.188-6.8125-15.188-15.195v-668.42zm-136.72-136.72h121.53c8.3906 0 15.195 6.8125 15.195 15.195v30.379h-151.91v-30.379c0-8.3828 6.8047-15.195 15.188-15.195zm60.77-244.68 37.691 77.973c-0.007812 0-37.691 47.664-37.691 47.664s-37.691-47.664-37.691-47.664z" fill="#934f00" fill-rule="evenodd"/>
</svg>
