<?xml version="1.0" encoding="UTF-8"?>
<svg width="3600pt" height="3600pt" version="1.1" viewBox="0 0 3600 3600" xmlns="http://www.w3.org/2000/svg">
 <path d="m1355 868.26c-0.25781 0.53516-0.49219 1.0703-0.71094 1.6055-9.0938 21.215-13.195 44.473-11.707 67.969l49.406 773.8c-43.664 5.7852-77.34 43.145-77.34 88.371v79.242c0 45.879 34.668 83.676 79.238 88.59v406.66c0 23.637 9.3906 46.316 26.109 63.035 16.723 16.723 39.402 26.113 63.039 26.113h89.145v69.332c0 30.906 15.727 58.145 39.617 74.129v183.4c0 16.402 13.312 29.715 29.715 29.715h316.96c16.402 0 29.715-13.312 29.715-29.715v-183.4c23.891-15.984 39.621-43.223 39.621-74.129v-69.332h89.145c23.633 0 46.316-9.3906 63.035-26.113 16.719-16.719 26.109-39.398 26.109-63.035v-406.66c44.57-4.9141 79.238-42.711 79.238-88.59v-79.242c0-45.227-33.676-82.586-77.336-88.371l49.406-773.8c1.4844-23.496-2.6172-46.754-11.707-67.969-0.21875-0.53516-0.45703-1.0703-0.71484-1.6055-6.6953-15.152-15.945-29.219-27.516-41.562-28.07-29.93-67.297-46.91-108.34-46.91h-618.27c-41.047 0-80.27 16.98-108.34 46.91-11.566 12.344-20.82 26.41-27.516 41.562zm573.76 1753.9v138.67h-257.53v-138.67zm-297.15-158.48h336.77v69.332c0 16.402-13.312 29.715-29.715 29.715h-277.34c-16.402 0-29.715-13.312-29.715-29.715zm515.06-104.16c-9.4492 3.3477-19.492 5.1133-29.715 5.1133h-633.92c-10.223 0-20.266-1.7656-29.719-5.1133v15.016c0 7.8867 3.1328 15.434 8.6992 21.02 5.5859 5.5664 13.133 8.6953 21.02 8.6953h633.92c7.8828 0 15.43-3.1289 21.02-8.6953 5.5664-5.5859 8.6953-13.133 8.6953-21.02zm0-84.031v-307.05h-693.35v307.05c0 7.8828 3.1328 15.43 8.6992 21.016 5.5859 5.5664 13.133 8.6992 21.02 8.6992h633.92c7.8828 0 15.43-3.1328 21.02-8.6992 5.5664-5.5859 8.6953-13.133 8.6953-21.016zm-325.66-278.55c-11.609-11.586-30.43-11.586-42.039 0l-118.86 118.86c-11.586 11.609-11.586 30.43 0 42.039l118.86 118.86c11.609 11.59 30.43 11.59 42.039 0l118.86-118.86c11.59-11.609 11.59-30.43 0-42.039zm-21.02 63.035 76.844 76.844-76.844 76.844-76.844-76.844zm425.91-259.93v79.242c0 16.402-13.312 29.715-29.715 29.715h-792.4c-16.402 0-29.715-13.312-29.715-29.715v-79.242c0-16.402 13.312-29.715 29.715-29.715h792.4c16.402 0 29.715 13.312 29.715 29.715zm-263.77-140.63 51.508 51.484h53.207l51.488-51.484-78.09-78.113zm-51.484 51.484h18.938l-9.4688-9.4688zm-188.77-51.484 51.504 51.484h53.211l51.508-51.484-78.113-78.113zm-51.488 51.484h18.941l-9.4727-9.4688zm-188.75-51.484 51.484 51.484h53.211l51.504-51.484-78.109-78.113zm120.12-120.13 78.09 78.09 78.113-78.09-78.113-78.109zm240.24 0 78.109 78.09 78.09-78.09-78.09-78.109zm-406.23-74.27 9.3711 146.83 72.562-72.562-78.09-78.109zm646.48 74.27 72.562 72.562 9.3711-146.83-3.8438-3.8398zm-360.38-120.13 78.109 78.094 78.113-78.094-78.113-78.109zm-240.23 0 78.09 78.094 78.109-78.094-78.109-78.109zm480.49 0 78.113 78.094 78.09-78.094-78.09-78.109zm-360.36-120.12 78.09 78.109 78.113-78.109-78.113-78.094zm240.24 0 78.109 78.109 78.09-78.109-78.09-78.094zm-420.65-59.848 8.1641 127.86 10.102 10.102 78.09-78.109-78.09-78.094zm660.9 59.848 78.09 78.109 10.105-10.102 8.1602-127.86-18.266-18.246zm-120.13-120.13 78.113 78.109 78.09-78.109-78.09-78.09zm-240.25 0 78.109 78.109 78.113-78.109-78.113-78.09zm-240.23 0 78.09 78.109 78.109-78.109-78.109-78.09zm600.62-120.13 78.09 78.113 26.488-26.469 6.1797-97.066-32.668-32.668zm-675.3-45.422 6.1797 97.066 26.484 26.469 78.09-78.113-78.09-78.09zm435.05 45.422 78.109 78.113 78.09-78.113-78.09-78.09zm-240.24 0 78.09 78.113 78.113-78.113-78.113-78.09zm360.36-120.11 78.113 78.09 78.09-78.09-78.09-78.113zm-480.49 0 78.09 78.09 78.109-78.09-78.109-78.113zm240.23 0 78.109 78.09 78.113-78.09-78.113-78.113zm140.87-99.41 57.371 57.371 57.371-57.371zm-240.25 0 57.367 57.371 57.371-57.371zm480.49 0 57.367 57.371 20.781-20.762c-2.1406-2.9492-4.4766-5.7617-6.9922-8.457-16.859-17.969-40.395-28.152-65.016-28.152zm-605.99 0h-6.1406c-24.625 0-48.16 10.184-65.016 28.152-2.5195 2.6953-4.8555 5.5078-6.9961 8.457l20.781 20.762z" fill="#934f00" fill-rule="evenodd"/>
</svg>
