<?xml version="1.0" encoding="UTF-8"?>
<svg width="3600pt" height="3600pt" version="1.1" viewBox="0 0 3600 3600" xmlns="http://www.w3.org/2000/svg">
 <path d="m2483.4 908.55c0-71.156-57.332-128.77-127.77-128.77h-1111.3c-70.445 0-127.78 57.609-127.78 128.77v1782.9c0 71.156 57.332 128.77 127.78 128.77h1111.3c70.441 0 127.77-57.609 127.77-128.77zm-584.39 1852.2h456.62c37.797 0 68.344-31.141 68.344-69.336v-1782.9c0-38.191-30.547-69.336-68.344-69.336h-1111.3c-37.797 0-68.344 31.145-68.344 69.336v1782.9c0 38.195 30.547 69.336 68.344 69.336h456.62v-67.809c-275.46-47.129-485.34-287.25-485.34-576.02 0-267.93 180.71-493.98 426.77-562.84-112.18-57.43-189.05-174.21-189.05-308.8 0-191.34 155.33-346.67 346.68-346.67s346.68 155.33 346.68 346.67c0 134.59-76.863 251.37-189.05 308.8 246.06 68.859 426.77 294.91 426.77 562.84 0 288.77-209.89 528.89-485.34 576.02zm-59.43-60.758c-13.074 0.87109-26.309 1.3281-39.621 1.3281s-26.543-0.45703-39.621-1.3281v60.758h79.242zm-39.621-1108c289.74 0 524.96 235.22 524.96 524.96 0 289.74-235.22 524.96-524.96 524.96-289.74 0-524.96-235.23-524.96-524.96 0-289.74 235.23-524.96 524.96-524.96zm0 39.621c-267.87 0-485.34 217.47-485.34 485.34 0 267.87 217.47 485.34 485.34 485.34s485.34-217.47 485.34-485.34c0-267.87-217.47-485.34-485.34-485.34zm0 59.43c235.07 0 425.91 190.85 425.91 425.91 0 235.07-190.85 425.91-425.91 425.91s-425.91-190.85-425.91-425.91c0-235.07 190.85-425.91 425.91-425.91zm6.8945 158.56-6.8945-0.078125c-147.6 0-267.43 119.83-267.43 267.43 0 147.6 119.83 267.43 267.43 267.43l6.8945-0.078125c144.41-3.6641 260.54-122.05 260.54-267.36 0-145.31-116.12-263.69-260.54-267.36zm-6.8945 59.352 5.3711 0.058594c112.32 2.8516 202.63 94.93 202.63 207.95 0 113.02-90.312 205.09-202.63 207.95l-5.3711 0.058594c-114.8 0-208-93.207-208-208 0-114.8 93.207-208 208-208zm0 39.617c-92.93 0-168.38 75.457-168.38 168.39 0 92.93 75.453 168.38 168.38 168.38s168.39-75.453 168.39-168.38c0-92.93-75.457-168.39-168.39-168.39zm0 59.43c60.145 0 108.96 48.812 108.96 108.96 0 60.141-48.812 108.95-108.96 108.95-60.141 0-108.95-48.812-108.95-108.95 0-60.145 48.812-108.96 108.95-108.96zm0-1049.9c158.54 0 287.25 128.7 287.25 287.24 0 158.54-128.71 287.25-287.25 287.25s-287.24-128.71-287.24-287.25c0-158.54 128.7-287.24 287.24-287.24zm0 39.617c-136.67 0-247.62 110.96-247.62 247.62 0 136.67 110.96 247.62 247.62 247.62s247.62-110.95 247.62-247.62c0-136.67-110.96-247.62-247.62-247.62zm0 59.43c103.86 0 188.2 84.332 188.2 188.2 0 103.86-84.332 188.2-188.2 188.2s-188.2-84.332-188.2-188.2c0-103.86 84.332-188.2 188.2-188.2zm0 89.145c-54.676 0-99.051 44.375-99.051 99.051 0 54.676 44.375 99.051 99.051 99.051s99.051-44.375 99.051-99.051c0-54.676-44.375-99.051-99.051-99.051zm0 59.434c21.871 0 39.621 17.746 39.621 39.617 0 21.871-17.75 39.621-39.621 39.621s-39.621-17.75-39.621-39.621c0-21.871 17.75-39.617 39.621-39.617z" fill="#934f00" fill-rule="evenodd"/>
</svg>
