<?xml version="1.0" encoding="UTF-8"?>
<svg width="3600pt" height="3600pt" version="1.1" viewBox="0 0 3600 3600" xmlns="http://www.w3.org/2000/svg">
 <path d="m179.85 981.35v1634.4c0 78.059 63.383 141.44 141.45 141.44h2954.5c78.059 0 141.44-63.375 141.44-141.44v-1634.4c0-78.059-63.375-141.44-141.44-141.44h-2954.5c-78.059 0-141.45 63.375-141.45 141.44zm299.34 455.75h-157.9c-26.02 0-47.145 21.125-47.145 47.152v1131.5c0 26.02 21.125 47.145 47.145 47.145h307.57v-510.06h-39.66c-29.102 0-57.004-11.465-77.586-31.805-20.789-20.539-32.426-48.406-32.426-77.457zm449.02 0h-55.371v606.5c0 29.051-11.637 56.918-32.426 77.457-20.582 20.34-48.477 31.805-77.586 31.805h-39.66v510.06h354.73v-510.06h-39.668c-29.102 0-57.004-11.465-77.586-31.805-20.789-20.539-32.426-48.406-32.426-77.457v-606.5zm243.97 715.76v510.06h354.73v-1225.8h-205.05v606.5c0 29.051-11.637 56.918-32.426 77.457-20.582 20.34-48.477 31.805-77.586 31.805zm654.07-715.76h-205.05v1225.8h354.73v-510.06h-39.66c-29.109 0-57.012-11.465-77.594-31.805-20.789-20.539-32.418-48.406-32.418-77.457zm449.02 0h-55.383v606.5c0 29.051-11.637 56.918-32.418 77.457-20.59 20.34-48.484 31.805-77.594 31.805h-39.66v510.06h354.73v-510.06h-39.66c-29.109 0-57.012-11.465-77.594-31.805-20.781-20.539-32.418-48.406-32.418-77.457zm449.02 0h-55.383v606.5c0 29.051-11.637 56.918-32.418 77.457-20.582 20.34-48.484 31.805-77.594 31.805h-39.66v510.06h354.73v-510.06h-39.66c-29.109 0-57.004-11.465-77.594-31.805-20.781-20.539-32.418-48.406-32.418-77.457zm393.63 0v606.5c0 29.051-11.629 56.918-32.418 77.457-20.582 20.34-48.484 31.805-77.594 31.805h-39.66v510.06h307.58c26.02 0 47.145-21.125 47.145-47.145v-1131.5c0-26.027-21.125-47.152-47.145-47.152zm-992.32 0h-205.05v606.5c0 3.9023 1.6133 7.6211 4.4023 10.387 2.9961 2.9609 7.0781 4.5859 11.309 4.5859h173.62c4.2383 0 8.3242-1.6211 11.316-4.5859 2.7891-2.7617 4.4023-6.4844 4.4023-10.387v-606.5zm898.03 0h-205.05v606.5c0 3.9023 1.6133 7.6211 4.4023 10.387 2.9961 2.9609 7.0781 4.5859 11.316 4.5859h173.62c4.2305 0 8.3125-1.6211 11.309-4.5859 2.7891-2.7617 4.4023-6.4844 4.4023-10.387v-606.5zm-449.02 0h-205.05v606.5c0 3.9023 1.6133 7.6211 4.4023 10.387 2.9961 2.9609 7.0781 4.5859 11.316 4.5859h173.61c4.2383 0 8.3242-1.6211 11.316-4.5859 2.7891-2.7617 4.4023-6.4844 4.4023-10.387v-606.5zm-1796.1 0h-205.04v606.5c0 3.9023 1.6055 7.6211 4.4023 10.387 2.9961 2.9609 7.0703 4.5859 11.309 4.5859h173.62c4.2383 0 8.3242-1.6211 11.316-4.5859 2.7891-2.7617 4.3945-6.4844 4.3945-10.387zm449.02 0h-205.05v606.5c0 3.9023 1.6055 7.6211 4.4023 10.387 2.9961 2.9609 7.0703 4.5859 11.309 4.5859h173.62c4.2383 0 8.3242-1.6211 11.316-4.5859 2.7891-2.7617 4.4023-6.4844 4.4023-10.387v-606.5zm2095.4-86.219v-369.53c0-26.02-21.125-47.145-47.145-47.145h-2954.5c-26.02 0-47.145 21.125-47.145 47.145v369.53c14.754-5.2305 30.621-8.0703 47.145-8.0703h2954.5c16.523 0 32.391 2.8398 47.145 8.0703zm-2813.1-353.81c-78.059 0-141.44 63.375-141.44 141.44 0 78.059 63.375 141.45 141.44 141.45 78.07 0 141.45-63.383 141.45-141.45 0-78.059-63.375-141.44-141.45-141.44zm345.75 0c-78.059 0-141.44 63.375-141.44 141.44 0 78.059 63.375 141.45 141.44 141.45 78.059 0 141.45-63.383 141.45-141.45 0-78.059-63.383-141.44-141.45-141.44zm345.75 0c-78.07 0-141.45 63.375-141.45 141.44 0 78.059 63.375 141.45 141.45 141.45 78.059 0 141.44-63.383 141.44-141.45 0-78.059-63.375-141.44-141.44-141.44zm345.74 0c-78.059 0-141.44 63.375-141.44 141.44 0 78.059 63.375 141.45 141.44 141.45 78.059 0 141.45-63.383 141.45-141.45 0-78.059-63.383-141.44-141.45-141.44zm1681.6 47.145c0-26.039-21.109-47.145-47.145-47.145h-125.73c-26.039 0-47.145 21.109-47.145 47.145v188.58c0 26.039 21.109 47.152 47.145 47.152h125.73c26.039 0 47.145-21.117 47.145-47.152zm-282.88 0c0-26.039-21.109-47.145-47.145-47.145h-125.73c-26.039 0-47.145 21.109-47.145 47.145v188.58c0 26.039 21.109 47.152 47.145 47.152h125.73c26.039 0 47.145-21.117 47.145-47.152zm188.58 47.145v94.289h-31.426v-94.289zm-282.88 0v94.289h-31.426v-94.289zm-2341.6 0c26.027 0 47.152 21.125 47.152 47.145 0 26.02-21.125 47.145-47.152 47.145-26.02 0-47.145-21.125-47.145-47.145 0-26.02 21.125-47.145 47.145-47.145zm345.75 0c26.02 0 47.145 21.125 47.145 47.145 0 26.02-21.125 47.145-47.145 47.145s-47.145-21.125-47.145-47.145c0-26.02 21.125-47.145 47.145-47.145zm345.75 0c26.02 0 47.145 21.125 47.145 47.145 0 26.02-21.125 47.145-47.145 47.145-26.027 0-47.152-21.125-47.152-47.145 0-26.02 21.125-47.145 47.152-47.145zm345.74 0c26.02 0 47.145 21.125 47.145 47.145 0 26.02-21.125 47.145-47.145 47.145s-47.145-21.125-47.145-47.145c0-26.02 21.125-47.145 47.145-47.145z" fill="#934f00" fill-rule="evenodd"/>
</svg>
