<?xml version="1.0" encoding="UTF-8"?>
<svg width="3600pt" height="3600pt" version="1.1" viewBox="0 0 3600 3600" xmlns="http://www.w3.org/2000/svg">
 <path d="m120 1860h120c37.094-0.15234 73.238-11.766 103.48-33.246 30.246-21.48 53.113-51.781 65.48-86.754h131.04v1080c0 42.129 11.09 83.516 32.152 120 21.066 36.484 51.363 66.781 87.848 87.848 36.484 21.062 77.871 32.152 120 32.152h1560c42.129 0 83.516-11.09 120-32.152 36.484-21.066 66.781-51.363 87.848-87.848 21.062-36.484 32.152-77.871 32.152-120h131.04c12.367 34.973 35.234 65.273 65.48 86.754 30.242 21.48 66.387 33.094 103.48 33.246h60c42.68-0.12891 82.055-22.996 103.32-60h153.36c21.266 37.004 60.641 59.871 103.32 60h180c31.824 0 62.348-12.645 84.852-35.148 22.504-22.504 35.148-53.027 35.148-84.852v-1320c0-31.824-12.645-62.348-35.148-84.852-22.504-22.504-53.027-35.148-84.852-35.148h-180c-42.68 0.12891-82.055 22.996-103.32 60h-153.36c-21.266-37.004-60.641-59.871-103.32-60h-60c-37.094 0.15234-73.238 11.766-103.48 33.246-30.246 21.48-53.113 51.781-65.48 86.754h-131.04c0-42.129-11.09-83.516-32.152-120-21.066-36.484-51.363-66.781-87.848-87.848-36.484-21.062-77.871-32.152-120-32.152h-120v-300h316.68c21.266 37.004 60.641 59.871 103.32 60h720c63.652 0 124.7-25.285 169.71-70.293 45.008-45.012 70.293-106.05 70.293-169.71s-25.285-124.7-70.293-169.71c-45.012-45.008-106.05-70.293-169.71-70.293h-720c-42.68 0.12891-82.055 22.996-103.32 60h-856.68c-31.824 0-62.348 12.645-84.852 35.148-22.504 22.504-35.148 53.027-35.148 84.852v120c0 31.824 12.645 62.348 35.148 84.852 22.504 22.504 53.027 35.148 84.852 35.148h120v300h-382.92l-80.52-161.04c-29.719-59.93-75.633-110.34-132.54-145.5-56.906-35.164-122.52-53.684-189.42-53.457h-605.64c-12.367-34.973-35.234-65.273-65.48-86.754-30.242-21.48-66.387-33.094-103.48-33.246h-120c-31.824 0-62.348 12.645-84.852 35.148-22.504 22.504-35.148 53.027-35.148 84.852v840c0 31.824 12.645 62.348 35.148 84.852 22.504 22.504 53.027 35.148 84.852 35.148zm3360-360v1320h-180v-1320zm-300 1260h-120v-1200h120zm-300-1260h60v1320h-60c-15.914 0-31.176-6.3203-42.426-17.574-11.254-11.25-17.574-26.512-17.574-42.426v-1200c0-15.914 6.3203-31.176 17.574-42.426 11.25-11.254 26.512-17.574 42.426-17.574zm-180 120v1080h-120v-1080zm-240-120v1320c0 31.824-12.645 62.348-35.148 84.852-22.504 22.504-53.027 35.148-84.852 35.148h-1560c-31.824 0-62.348-12.645-84.852-35.148-22.504-22.504-35.148-53.027-35.148-84.852v-1320c0-31.824 12.645-62.348 35.148-84.852 22.504-22.504 53.027-35.148 84.852-35.148h1560c31.824 0 62.348 12.645 84.852 35.148 22.504 22.504 35.148 53.027 35.148 84.852zm900-840c42.871 0 82.488 22.871 103.92 60 21.438 37.129 21.438 82.871 0 120-21.434 37.129-61.051 60-103.92 60h-720v-240zm-1680 60h840v120h-840zm240 240h180v300h-180zm-690.78 192.66 54 107.34h-503.22c-63.652 0-124.7 25.285-169.71 70.293-45.008 45.012-70.293 106.05-70.293 169.71v120h-120v-600h594.6c44.598-0.16016 88.348 12.188 126.28 35.633 37.938 23.449 68.539 57.062 88.336 97.027zm-1109.2-252.66h120c15.914 0 31.176 6.3203 42.426 17.574 11.254 11.25 17.574 26.512 17.574 42.426v720c0 15.914-6.3203 31.176-17.574 42.426-11.25 11.254-26.512 17.574-42.426 17.574h-120z" fill="#934f00"/>
 <path d="m2160 1860c47.738 0 93.523-18.965 127.28-52.723 33.758-33.754 52.723-79.539 52.723-127.28s-18.965-93.523-52.723-127.28c-33.754-33.758-79.539-52.723-127.28-52.723s-93.523 18.965-127.28 52.723c-33.758 33.754-52.723 79.539-52.723 127.28s18.965 93.523 52.723 127.28c33.754 33.758 79.539 52.723 127.28 52.723zm0-240c15.914 0 31.176 6.3203 42.426 17.574 11.254 11.25 17.574 26.512 17.574 42.426s-6.3203 31.176-17.574 42.426c-11.25 11.254-26.512 17.574-42.426 17.574s-31.176-6.3203-42.426-17.574c-11.254-11.25-17.574-26.512-17.574-42.426s6.3203-31.176 17.574-42.426c11.25-11.254 26.512-17.574 42.426-17.574z" fill="#934f00"/>
 <path d="m960 2460c-47.738 0-93.523 18.965-127.28 52.723-33.758 33.754-52.723 79.539-52.723 127.28s18.965 93.523 52.723 127.28c33.754 33.758 79.539 52.723 127.28 52.723s93.523-18.965 127.28-52.723c33.758-33.754 52.723-79.539 52.723-127.28s-18.965-93.523-52.723-127.28c-33.754-33.758-79.539-52.723-127.28-52.723zm0 240c-15.914 0-31.176-6.3203-42.426-17.574-11.254-11.25-17.574-26.512-17.574-42.426s6.3203-31.176 17.574-42.426c11.25-11.254 26.512-17.574 42.426-17.574s31.176 6.3203 42.426 17.574c11.254 11.25 17.574 26.512 17.574 42.426s-6.3203 31.176-17.574 42.426c-11.25 11.254-26.512 17.574-42.426 17.574z" fill="#934f00"/>
 <path d="m780 2160c0 47.738 18.965 93.523 52.723 127.28 33.754 33.758 79.539 52.723 127.28 52.723h720c47.738 0 93.523-18.965 127.28-52.723 33.758-33.754 52.723-79.539 52.723-127.28v-480c0-47.738-18.965-93.523-52.723-127.28-33.754-33.758-79.539-52.723-127.28-52.723h-720c-47.738 0-93.523 18.965-127.28 52.723-33.758 33.754-52.723 79.539-52.723 127.28zm120-480c0-15.914 6.3203-31.176 17.574-42.426 11.25-11.254 26.512-17.574 42.426-17.574h720c15.914 0 31.176 6.3203 42.426 17.574 11.254 11.25 17.574 26.512 17.574 42.426v480c0 15.914-6.3203 31.176-17.574 42.426-11.25 11.254-26.512 17.574-42.426 17.574h-720c-15.914 0-31.176-6.3203-42.426-17.574-11.254-11.25-17.574-26.512-17.574-42.426z" fill="#934f00"/>
 <path d="m1740 2580h-420c-21.438 0-41.242 11.438-51.961 30s-10.719 41.438 0 60 30.523 30 51.961 30h420c21.438 0 41.242-11.438 51.961-30s10.719-41.438 0-60-30.523-30-51.961-30z" fill="#934f00"/>
</svg>
